<svg width="64" height="55" viewBox="0 0 64 55" fill="none" xmlns="http://www.w3.org/2000/svg">
<path fill-rule="evenodd" clip-rule="evenodd" d="M22.0297 12.8029C22.0297 14.4169 20.7747 15.7219 19.2287 15.7219C17.6787 15.7219 16.4277 14.4169 16.4277 12.8029C16.4277 11.1909 17.6787 9.87988 19.2287 9.87988C20.7757 9.87988 22.0297 11.1899 22.0297 12.8029Z" fill="#C8832E"/>
<path fill-rule="evenodd" clip-rule="evenodd" d="M15.3125 24.5408C15.3125 24.5408 21.8795 20.4688 18.5275 12.2358C18.5275 12.2358 30.4105 29.3458 33.7655 22.0658C37.1195 14.7848 32.7865 30.9508 32.5075 31.3858C32.2285 31.8248 26.6365 36.1938 26.6365 36.1938H17.8305L15.3125 24.5408Z" fill="#C8832E"/>
<path d="M44.6946 15.7218C46.2432 15.7218 47.4986 14.4149 47.4986 12.8028C47.4986 11.1907 46.2432 9.88379 44.6946 9.88379C43.146 9.88379 41.8906 11.1907 41.8906 12.8028C41.8906 14.4149 43.146 15.7218 44.6946 15.7218Z" fill="#C8832E"/>
<path fill-rule="evenodd" clip-rule="evenodd" d="M48.6062 24.5408C48.6062 24.5408 42.0352 20.4688 45.3912 12.2358C45.3912 12.2358 33.5072 29.3458 30.1512 22.0658C26.7982 14.7848 31.1322 30.9508 31.4142 31.3858C31.6882 31.8248 37.2812 36.1938 37.2812 36.1938H46.0912L48.6062 24.5408Z" fill="#C8832E"/>
<path fill-rule="evenodd" clip-rule="evenodd" d="M60.03 9.897C57.884 9.897 56.146 11.804 56.146 14.16C56.146 14.788 56.276 15.384 56.499 15.92C50.489 19.374 44.904 24.708 44.904 24.708C39.825 30.571 35.712 21.014 33.469 13.688C36.201 12.917 38.226 10.2 38.226 6.958C38.226 3.115 35.39 0 31.888 0C28.387 0 25.55 3.115 25.55 6.958C25.55 10.251 27.635 12.998 30.436 13.726C28.188 21.053 24.082 30.569 19.016 24.713C19.016 24.713 13.431 19.379 7.41495 15.925C7.6487 15.3676 7.76937 14.7694 7.76995 14.165C7.76995 11.809 6.02995 9.902 3.88595 9.902C1.74095 9.902 0.00195312 11.809 0.00195312 14.165C0.00195312 16.521 1.74195 18.43 3.88595 18.43C4.60595 18.43 5.26895 18.201 5.84895 17.826C8.09295 22.505 11.261 30.916 9.60695 38.63C9.60695 38.63 12.042 48.385 31.958 48.056C51.873 48.385 54.305 38.63 54.305 38.63C52.653 30.919 55.82 22.51 58.066 17.826C58.646 18.201 59.309 18.43 60.029 18.43C62.174 18.43 63.914 16.521 63.914 14.165C63.914 11.809 62.175 9.901 60.03 9.901" fill="#F79420"/>
<path fill-rule="evenodd" clip-rule="evenodd" d="M31.9604 50.2858C16.0474 50.5488 11.2984 44.3768 10.0334 41.8838C9.9819 43.009 9.84012 44.1283 9.60938 45.2308C9.60938 45.2308 12.0444 54.9838 31.9604 54.6588C51.8754 54.9838 54.3074 45.2308 54.3074 45.2308C54.0772 44.1282 53.9361 43.009 53.8854 41.8838C52.6204 44.3768 47.8754 50.5488 31.9604 50.2858Z" fill="#C8832E"/>
<path fill-rule="evenodd" clip-rule="evenodd" d="M31.059 47.9448C33.917 33.5798 35.069 18.9148 30.788 4.64477C30.3 3.02077 30.172 1.50677 30.313 0.11377C27.573 0.88277 25.548 3.59977 25.548 6.84777C25.548 10.1408 27.633 12.8978 30.434 13.6138C28.186 20.9428 24.08 30.4608 19.014 24.6028C19.014 24.6028 13.429 19.2688 7.413 15.8138C7.64693 15.2561 7.76761 14.6575 7.768 14.0528C7.768 11.7008 6.028 9.79177 3.884 9.79177C1.739 9.79177 0 11.7008 0 14.0528C0 16.4108 1.74 18.3198 3.884 18.3198C4.604 18.3198 5.267 18.0888 5.847 17.7158C8.091 22.3918 11.259 30.8058 9.605 38.5168C9.605 38.5168 11.98 47.9638 31.059 47.9478" fill="#F19D43"/>
<path d="M31.7866 34L33.1878 36.6169L36.3156 37.0343L34.049 39.0681L34.5857 41.9425L31.7866 40.5836L28.9908 41.9425L29.5258 39.0681L27.2617 37.0343L30.3871 36.6169L31.7866 34Z" fill="white"/>
<path d="M31.7353 35.3763C31.7172 34.9337 31.7438 34.4903 31.8148 34.053L31.7891 34L30.3887 36.6152L27.2617 37.0343L29.5225 39.0665L28.99 41.9425L31.7891 40.5861L34.584 41.9425L34.3587 40.7219C32.763 39.3315 31.8139 37.4011 31.7353 35.3763ZM42.7261 35.4202L43.5874 37.021L45.502 37.2794L44.1182 38.524L44.4403 40.2888L42.7261 39.4607L41.0119 40.2888L41.3398 38.524L39.9536 37.2794L41.8732 37.021L42.7261 35.4202Z" fill="white"/>
<path d="M42.6922 36.2625C42.6819 35.9912 42.6988 35.7196 42.7427 35.4517L42.7262 35.4194L41.869 37.021L39.9519 37.2786L41.3382 38.5241L41.0128 40.2888L42.7262 39.4607L44.4395 40.2888L44.3021 39.5402C43.3241 38.6864 42.7419 37.5005 42.6922 36.2625ZM20.775 35.4203L21.6305 37.021L23.546 37.2794L22.1605 38.5241L22.4884 40.2888L20.775 39.4607L19.0608 40.2888L19.3888 38.5241L18 37.2794L19.9155 37.021L20.775 35.4203Z" fill="white"/>
<path d="M20.7403 36.2625C20.7268 35.9911 20.7443 35.7191 20.7924 35.4517L20.775 35.4194L19.9155 37.021L18 37.2786L19.3855 38.5241L19.06 40.2888L20.7742 39.4607L22.4876 40.2888L22.3485 39.5402C21.3705 38.6864 20.7891 37.5005 20.7403 36.2625Z" fill="white"/>
</svg>
