<svg width="142" height="36" viewBox="0 0 142 36" fill="none" xmlns="http://www.w3.org/2000/svg">
<path d="M24.4065 6H11.6346C8.52271 6 6 8.52271 6 11.6346V24.4065C6 27.5184 8.52271 30.0411 11.6346 30.0411H24.4065C27.5184 30.0411 30.0411 27.5184 30.0411 24.4065V11.6346C30.0411 8.52271 27.5184 6 24.4065 6Z" fill="url(#paint0_radial_5_2)"/>
<path d="M24.4065 6H11.6346C8.52271 6 6 8.52271 6 11.6346V24.4065C6 27.5184 8.52271 30.0411 11.6346 30.0411H24.4065C27.5184 30.0411 30.0411 27.5184 30.0411 24.4065V11.6346C30.0411 8.52271 27.5184 6 24.4065 6Z" fill="url(#paint1_radial_5_2)"/>
<path d="M18.0214 8.62949C15.471 8.62949 15.1508 8.64067 14.1492 8.68622C13.1494 8.73204 12.467 8.89028 11.8699 9.12252C11.2521 9.36237 10.7282 9.68326 10.2062 10.2054C9.68383 10.7275 9.36293 11.2514 9.12233 11.8688C8.88944 12.4661 8.73101 13.1488 8.68603 14.1481C8.64123 15.1499 8.62949 15.4701 8.62949 18.0206C8.62949 20.5712 8.64076 20.8903 8.68621 21.8919C8.73223 22.8917 8.89047 23.5741 9.12252 24.1712C9.36256 24.789 9.68345 25.3129 10.2056 25.8348C10.7275 26.3573 11.2514 26.6789 11.8687 26.9188C12.4662 27.151 13.1487 27.3092 14.1483 27.3551C15.1501 27.4006 15.4699 27.4118 18.0203 27.4118C20.571 27.4118 20.8901 27.4006 21.8917 27.3551C22.8915 27.3092 23.5747 27.151 24.1722 26.9188C24.7897 26.6789 25.3129 26.3573 25.8347 25.8348C26.3571 25.3129 26.6779 24.789 26.9186 24.1715C27.1494 23.5741 27.3079 22.8915 27.3549 21.8921C27.3999 20.8905 27.4116 20.5712 27.4116 18.0206C27.4116 15.4701 27.3999 15.1501 27.3549 14.1483C27.3079 13.1486 27.1494 12.4662 26.9186 11.8691C26.6779 11.2514 26.3571 10.7275 25.8347 10.2054C25.3123 9.68308 24.7899 9.36218 24.1717 9.12262C23.573 8.89028 22.8902 8.73195 21.8904 8.68622C20.8887 8.64067 20.5697 8.62949 18.0185 8.62949H18.0214ZM17.1789 10.3219C17.429 10.3215 17.708 10.3219 18.0214 10.3219C20.5289 10.3219 20.826 10.3309 21.8162 10.3759C22.7318 10.4177 23.2288 10.5707 23.5599 10.6993C23.9981 10.8694 24.3106 11.073 24.6391 11.4017C24.9678 11.7304 25.1712 12.0434 25.3418 12.4817C25.4704 12.8123 25.6235 13.3092 25.6652 14.2249C25.7102 15.2149 25.72 15.5122 25.72 18.0185C25.72 20.5248 25.7102 20.8222 25.6652 21.8121C25.6234 22.7277 25.4704 23.2247 25.3418 23.5554C25.1716 23.9936 24.9678 24.3057 24.6391 24.6342C24.3104 24.9629 23.9983 25.1663 23.5599 25.3366C23.2292 25.4657 22.7318 25.6183 21.8162 25.6602C20.8262 25.7052 20.5289 25.7149 18.0214 25.7149C15.5138 25.7149 15.2166 25.7052 14.2267 25.6602C13.311 25.6179 12.8141 25.4649 12.4827 25.3364C12.0445 25.1661 11.7315 24.9627 11.4028 24.634C11.0741 24.3053 10.8707 23.9931 10.7 23.5546C10.5715 23.2239 10.4183 22.727 10.3766 21.8113C10.3316 20.8213 10.3226 20.524 10.3226 18.0161C10.3226 15.5083 10.3316 15.2125 10.3766 14.2225C10.4185 13.3069 10.5715 12.8099 10.7 12.4789C10.8703 12.0406 11.0741 11.7276 11.4029 11.3989C11.7315 11.0702 12.0445 10.8667 12.4828 10.6962C12.8139 10.5671 13.311 10.4145 14.2267 10.3724C15.093 10.3332 15.4287 10.3215 17.1789 10.3195V10.3219ZM23.0343 11.8811C22.4122 11.8811 21.9074 12.3854 21.9074 13.0077C21.9074 13.6299 22.4122 14.1346 23.0343 14.1346C23.6565 14.1346 24.1613 13.6299 24.1613 13.0077C24.1613 12.3855 23.6565 11.8808 23.0343 11.8808V11.8811ZM18.0214 13.1979C15.3581 13.1979 13.1987 15.3572 13.1987 18.0206C13.1987 20.684 15.3581 22.8424 18.0214 22.8424C20.6848 22.8424 22.8434 20.684 22.8434 18.0206C22.8434 15.3573 20.6846 13.1979 18.0212 13.1979H18.0214ZM18.0214 14.8902C19.7502 14.8902 21.1518 16.2917 21.1518 18.0206C21.1518 19.7494 19.7502 21.1511 18.0214 21.1511C16.2925 21.1511 14.8911 19.7494 14.8911 18.0206C14.8911 16.2917 16.2925 14.8902 18.0214 14.8902Z" fill="white"/>
<path d="M36.494 24V11.4H39.41V24H36.494ZM48.0883 14.172C48.8563 14.172 49.5403 14.328 50.1403 14.64C50.7523 14.94 51.2323 15.408 51.5803 16.044C51.9283 16.668 52.1023 17.472 52.1023 18.456V24H49.2943V18.888C49.2943 18.108 49.1203 17.532 48.7723 17.16C48.4363 16.788 47.9563 16.602 47.3323 16.602C46.8883 16.602 46.4863 16.698 46.1263 16.89C45.7783 17.07 45.5023 17.352 45.2983 17.736C45.1063 18.12 45.0103 18.612 45.0103 19.212V24H42.2023V14.316H44.8843V16.998L44.3803 16.188C44.7283 15.54 45.2263 15.042 45.8743 14.694C46.5223 14.346 47.2603 14.172 48.0883 14.172ZM57.9056 24.144C57.0776 24.144 56.2796 24.048 55.5116 23.856C54.7556 23.652 54.1556 23.4 53.7116 23.1L54.6476 21.084C55.0916 21.36 55.6136 21.588 56.2136 21.768C56.8256 21.936 57.4256 22.02 58.0136 22.02C58.6616 22.02 59.1176 21.942 59.3816 21.786C59.6576 21.63 59.7956 21.414 59.7956 21.138C59.7956 20.91 59.6876 20.742 59.4716 20.634C59.2676 20.514 58.9916 20.424 58.6436 20.364C58.2956 20.304 57.9116 20.244 57.4916 20.184C57.0836 20.124 56.6696 20.046 56.2496 19.95C55.8296 19.842 55.4456 19.686 55.0976 19.482C54.7496 19.278 54.4676 19.002 54.2516 18.654C54.0476 18.306 53.9456 17.856 53.9456 17.304C53.9456 16.692 54.1196 16.152 54.4676 15.684C54.8276 15.216 55.3436 14.85 56.0156 14.586C56.6876 14.31 57.4916 14.172 58.4276 14.172C59.0876 14.172 59.7596 14.244 60.4436 14.388C61.1276 14.532 61.6976 14.742 62.1536 15.018L61.2176 17.016C60.7496 16.74 60.2756 16.554 59.7956 16.458C59.3276 16.35 58.8716 16.296 58.4276 16.296C57.8036 16.296 57.3476 16.38 57.0596 16.548C56.7716 16.716 56.6276 16.932 56.6276 17.196C56.6276 17.436 56.7296 17.616 56.9336 17.736C57.1496 17.856 57.4316 17.952 57.7796 18.024C58.1276 18.096 58.5056 18.162 58.9136 18.222C59.3336 18.27 59.7536 18.348 60.1736 18.456C60.5936 18.564 60.9716 18.72 61.3076 18.924C61.6556 19.116 61.9376 19.386 62.1536 19.734C62.3696 20.07 62.4776 20.514 62.4776 21.066C62.4776 21.666 62.2976 22.2 61.9376 22.668C61.5776 23.124 61.0556 23.484 60.3716 23.748C59.6996 24.012 58.8776 24.144 57.9056 24.144ZM68.1701 24.144C67.0301 24.144 66.1421 23.856 65.5061 23.28C64.8701 22.692 64.5521 21.822 64.5521 20.67V12.174H67.3601V20.634C67.3601 21.042 67.4681 21.36 67.6841 21.588C67.9001 21.804 68.1941 21.912 68.5661 21.912C69.0101 21.912 69.3881 21.792 69.7001 21.552L70.4561 23.532C70.1681 23.736 69.8201 23.892 69.4121 24C69.0161 24.096 68.6021 24.144 68.1701 24.144ZM63.0581 16.692V14.532H69.7721V16.692H63.0581ZM77.9723 24V22.11L77.7923 21.696V18.312C77.7923 17.712 77.6063 17.244 77.2343 16.908C76.8743 16.572 76.3163 16.404 75.5603 16.404C75.0443 16.404 74.5343 16.488 74.0303 16.656C73.5383 16.812 73.1183 17.028 72.7703 17.304L71.7623 15.342C72.2903 14.97 72.9263 14.682 73.6703 14.478C74.4143 14.274 75.1703 14.172 75.9383 14.172C77.4143 14.172 78.5603 14.52 79.3763 15.216C80.1923 15.912 80.6003 16.998 80.6003 18.474V24H77.9723ZM75.0203 24.144C74.2643 24.144 73.6163 24.018 73.0763 23.766C72.5363 23.502 72.1223 23.148 71.8343 22.704C71.5463 22.26 71.4023 21.762 71.4023 21.21C71.4023 20.634 71.5403 20.13 71.8163 19.698C72.1043 19.266 72.5543 18.93 73.1663 18.69C73.7783 18.438 74.5763 18.312 75.5603 18.312H78.1343V19.95H75.8663C75.2063 19.95 74.7503 20.058 74.4983 20.274C74.2583 20.49 74.1383 20.76 74.1383 21.084C74.1383 21.444 74.2763 21.732 74.5523 21.948C74.8403 22.152 75.2303 22.254 75.7223 22.254C76.1903 22.254 76.6103 22.146 76.9823 21.93C77.3543 21.702 77.6243 21.372 77.7923 20.94L78.2243 22.236C78.0203 22.86 77.6483 23.334 77.1083 23.658C76.5683 23.982 75.8723 24.144 75.0203 24.144ZM87.766 27.636C86.854 27.636 85.972 27.522 85.12 27.294C84.28 27.078 83.578 26.748 83.014 26.304L84.13 24.288C84.538 24.624 85.054 24.888 85.678 25.08C86.314 25.284 86.938 25.386 87.55 25.386C88.546 25.386 89.266 25.164 89.71 24.72C90.166 24.276 90.394 23.616 90.394 22.74V21.282L90.574 18.852L90.538 16.404V14.316H93.202V22.38C93.202 24.18 92.734 25.506 91.798 26.358C90.862 27.21 89.518 27.636 87.766 27.636ZM87.334 23.532C86.434 23.532 85.618 23.34 84.886 22.956C84.166 22.56 83.584 22.014 83.14 21.318C82.708 20.61 82.492 19.788 82.492 18.852C82.492 17.904 82.708 17.082 83.14 16.386C83.584 15.678 84.166 15.132 84.886 14.748C85.618 14.364 86.434 14.172 87.334 14.172C88.15 14.172 88.87 14.34 89.494 14.676C90.118 15 90.604 15.51 90.952 16.206C91.3 16.89 91.474 17.772 91.474 18.852C91.474 19.92 91.3 20.802 90.952 21.498C90.604 22.182 90.118 22.692 89.494 23.028C88.87 23.364 88.15 23.532 87.334 23.532ZM87.892 21.228C88.384 21.228 88.822 21.132 89.206 20.94C89.59 20.736 89.89 20.454 90.106 20.094C90.322 19.734 90.43 19.32 90.43 18.852C90.43 18.372 90.322 17.958 90.106 17.61C89.89 17.25 89.59 16.974 89.206 16.782C88.822 16.578 88.384 16.476 87.892 16.476C87.4 16.476 86.962 16.578 86.578 16.782C86.194 16.974 85.888 17.25 85.66 17.61C85.444 17.958 85.336 18.372 85.336 18.852C85.336 19.32 85.444 19.734 85.66 20.094C85.888 20.454 86.194 20.736 86.578 20.94C86.962 21.132 87.4 21.228 87.892 21.228ZM95.8155 24V14.316H98.4975V17.052L98.1195 16.26C98.4075 15.576 98.8695 15.06 99.5055 14.712C100.142 14.352 100.916 14.172 101.828 14.172V16.764C101.708 16.752 101.6 16.746 101.504 16.746C101.408 16.734 101.306 16.728 101.198 16.728C100.43 16.728 99.8055 16.95 99.3255 17.394C98.8575 17.826 98.6235 18.504 98.6235 19.428V24H95.8155ZM108.804 24V22.11L108.624 21.696V18.312C108.624 17.712 108.438 17.244 108.066 16.908C107.706 16.572 107.148 16.404 106.392 16.404C105.876 16.404 105.366 16.488 104.862 16.656C104.37 16.812 103.95 17.028 103.602 17.304L102.594 15.342C103.122 14.97 103.758 14.682 104.502 14.478C105.246 14.274 106.002 14.172 106.77 14.172C108.246 14.172 109.392 14.52 110.208 15.216C111.024 15.912 111.432 16.998 111.432 18.474V24H108.804ZM105.852 24.144C105.096 24.144 104.448 24.018 103.908 23.766C103.368 23.502 102.954 23.148 102.666 22.704C102.378 22.26 102.234 21.762 102.234 21.21C102.234 20.634 102.372 20.13 102.648 19.698C102.936 19.266 103.386 18.93 103.998 18.69C104.61 18.438 105.408 18.312 106.392 18.312H108.966V19.95H106.698C106.038 19.95 105.582 20.058 105.33 20.274C105.09 20.49 104.97 20.76 104.97 21.084C104.97 21.444 105.108 21.732 105.384 21.948C105.672 22.152 106.062 22.254 106.554 22.254C107.022 22.254 107.442 22.146 107.814 21.93C108.186 21.702 108.456 21.372 108.624 20.94L109.056 22.236C108.852 22.86 108.48 23.334 107.94 23.658C107.4 23.982 106.704 24.144 105.852 24.144ZM126.376 14.172C127.144 14.172 127.822 14.328 128.41 14.64C129.01 14.94 129.478 15.408 129.814 16.044C130.162 16.668 130.336 17.472 130.336 18.456V24H127.528V18.888C127.528 18.108 127.366 17.532 127.042 17.16C126.718 16.788 126.262 16.602 125.674 16.602C125.266 16.602 124.9 16.698 124.576 16.89C124.252 17.07 124 17.346 123.82 17.718C123.64 18.09 123.55 18.564 123.55 19.14V24H120.742V18.888C120.742 18.108 120.58 17.532 120.256 17.16C119.944 16.788 119.494 16.602 118.906 16.602C118.498 16.602 118.132 16.698 117.808 16.89C117.484 17.07 117.232 17.346 117.052 17.718C116.872 18.09 116.782 18.564 116.782 19.14V24H113.974V14.316H116.656V16.962L116.152 16.188C116.488 15.528 116.962 15.03 117.574 14.694C118.198 14.346 118.906 14.172 119.698 14.172C120.586 14.172 121.36 14.4 122.02 14.856C122.692 15.3 123.136 15.984 123.352 16.908L122.362 16.638C122.686 15.882 123.202 15.282 123.91 14.838C124.63 14.394 125.452 14.172 126.376 14.172Z" fill="black"/>
<defs>
<radialGradient id="paint0_radial_5_2" cx="0" cy="0" r="1" gradientUnits="userSpaceOnUse" gradientTransform="translate(12.3859 31.8927) rotate(-90) scale(23.8265 22.1605)">
<stop stop-color="#FFDD55"/>
<stop offset="0.1" stop-color="#FFDD55"/>
<stop offset="0.5" stop-color="#FF543E"/>
<stop offset="1" stop-color="#C837AB"/>
</radialGradient>
<radialGradient id="paint1_radial_5_2" cx="0" cy="0" r="1" gradientUnits="userSpaceOnUse" gradientTransform="translate(1.97302 7.7318) rotate(78.681) scale(10.6506 43.902)">
<stop stop-color="#3771C8"/>
<stop offset="0.128" stop-color="#3771C8"/>
<stop offset="1" stop-color="#6600FF" stop-opacity="0"/>
</radialGradient>
</defs>
</svg>
