<svg
                                        xmlns="http://www.w3.org/2000/svg"
                                        width="81"
                                        height="21"
                                        viewBox="0 0 81 21"
                                        fill="none"
                                    >
                                        <path
                                            d="M32.0714 12.2142L36.4858 17.6428H33L29.0714 12.6572V17.6428H26.2142V3.35719H29.0714V11.7572L32.7 7.64281H36.3428L32.0714 12.2142ZM20.6428 7.35719C20.0172 7.36659 19.4033 7.52745 18.8535 7.826C18.3036 8.12454 17.8344 8.55187 17.4858 9.07141V7.64281H14.7858V17.6428H17.6428V12.9714C17.6053 12.6323 17.638 12.2892 17.7388 11.9633C17.8397 11.6374 18.0065 11.3358 18.229 11.0771C18.4514 10.8185 18.7247 10.6084 19.0318 10.46C19.339 10.3115 19.6734 10.2279 20.0142 10.2142C21.6714 10.2142 21.9286 11.8428 21.9286 12.9714V17.6428H24.7858V12.3428C24.7858 9.2 23.7428 7.35719 20.7 7.35719H20.6428ZM46.2142 12.8714C46.2252 13.0809 46.2252 13.2904 46.2142 13.5H38.7142V13.6C38.836 14.1957 39.166 14.7286 39.6451 15.103C40.1243 15.4773 40.7211 15.6687 41.3286 15.6428C41.8105 15.6638 42.2917 15.5873 42.7434 15.4179C43.195 15.2486 43.6079 14.9898 43.9572 14.6572L45.8572 16.0858C45.255 16.7003 44.5307 17.1819 43.731 17.4993C42.9313 17.8167 42.0739 17.9629 41.2142 17.9286C40.5023 17.9736 39.7889 17.8652 39.1224 17.6109C38.4559 17.3566 37.8518 16.9622 37.3507 16.4544C36.8497 15.9466 36.4635 15.3371 36.2181 14.6673C35.9728 13.9974 35.8741 13.2827 35.9286 12.5714C35.9139 11.8692 36.0441 11.1715 36.3109 10.5219C36.5777 9.87219 36.9755 9.28443 37.4794 8.79523C37.9834 8.30604 38.5827 7.92588 39.24 7.67847C39.8973 7.43106 40.5986 7.32169 41.3 7.35719C43.9858 7.35719 46.2142 9.25719 46.2142 12.8714ZM43.5572 11.6428C43.5467 11.3599 43.4786 11.082 43.3573 10.8262C43.2359 10.5704 43.0637 10.3419 42.8512 10.1548C42.6387 9.9677 42.3903 9.8258 42.1211 9.73777C41.852 9.64975 41.5678 9.61744 41.2858 9.64281C40.0295 9.50703 38.8919 10.3919 38.7142 11.6428H43.5572ZM3.35719 3.35719H0.5V17.6428H9.07141V14.7859H3.35719V3.35719ZM54.7858 3.35719H57.6428V17.6428H54.9428V16.6428C54.6 17.0652 54.163 17.4015 53.6669 17.6248C53.1708 17.848 52.6293 17.9521 52.0858 17.9286C51.4217 17.9115 50.7682 17.7589 50.1653 17.48C49.5625 17.201 49.023 16.8018 48.5802 16.3067C48.1373 15.8117 47.8003 15.2312 47.59 14.6012C47.3797 13.9711 47.3005 13.3046 47.3572 12.6428C47.2897 11.98 47.361 11.3105 47.5664 10.6768C47.7718 10.043 48.1069 9.45901 48.5503 8.96184C48.9937 8.46467 49.5358 8.06525 50.142 7.78898C50.7482 7.51272 51.4053 7.36567 52.0714 7.35719C52.5676 7.33541 53.0631 7.41262 53.5291 7.58431C53.9952 7.75599 54.4223 8.01873 54.7858 8.35719V3.35719ZM55 12.6428C55.0449 12.3129 55.0186 11.9773 54.9228 11.6584C54.827 11.3396 54.6639 11.045 54.4446 10.7945C54.2253 10.5441 53.9548 10.3435 53.6514 10.2065C53.348 10.0694 53.0187 9.99901 52.6858 10C51.3191 10.0992 50.2834 11.2745 50.3572 12.6428C50.2834 14.0111 51.3191 15.1866 52.6858 15.2858C53.0187 15.2868 53.348 15.2164 53.6514 15.0793C53.9548 14.9422 54.2253 14.7417 54.4446 14.4912C54.664 14.2407 54.827 13.9461 54.9228 13.6273C55.0186 13.3084 55.0449 12.9727 55 12.6428ZM11.9286 3.07141C11.4691 3.07788 11.0293 3.25847 10.6978 3.57671C10.3663 3.89495 10.168 4.32712 10.1428 4.78594C10.1428 5.77203 10.9423 6.57156 11.9286 6.57156C12.9148 6.57156 13.7141 5.77187 13.7141 4.78594C13.6889 4.32718 13.4905 3.89507 13.1591 3.57687C12.8277 3.25866 12.388 3.07792 11.9286 3.07141ZM10.5 17.6428H13.3572V7.64281H10.5V17.6428ZM80.5 1.92859V19.0714C80.5 19.4503 80.3495 19.8137 80.0816 20.0816C79.8137 20.3495 79.4503 20.5 79.0714 20.5H61.9286C61.5497 20.5 61.1863 20.3495 60.9184 20.0816C60.6505 19.8137 60.5 19.4503 60.5 19.0714V1.92859C60.5 1.54971 60.6505 1.18634 60.9184 0.918425C61.1863 0.650512 61.5497 0.5 61.9286 0.5H79.0714C79.4503 0.5 79.8137 0.650512 80.0816 0.918425C80.3495 1.18634 80.5 1.54971 80.5 1.92859ZM66.2142 7.64281H63.3572V17.6428H66.2142V7.64281ZM66.5714 4.78578C66.5714 3.79953 65.7719 3 64.7858 3C63.7997 3 63 3.79953 63 4.78578C63 5.77188 63.7995 6.57141 64.7858 6.57141C65.7719 6.57141 66.5714 5.77188 66.5714 4.78578ZM77.6428 12.3428C77.6428 9.2 76.6 7.35719 73.5572 7.35719C72.9219 7.35728 72.2964 7.5137 71.7358 7.81265C71.1752 8.1116 70.6968 8.54389 70.3428 9.07141V7.64281H67.6428V17.6428H70.5V12.9714C70.4625 12.6323 70.4952 12.2892 70.596 11.9633C70.6969 11.6374 70.8637 11.3358 71.0862 11.0771C71.3086 10.8185 71.5819 10.6084 71.889 10.46C72.1962 10.3115 72.5305 10.2279 72.8714 10.2142C74.5286 10.2142 74.7858 11.8428 74.7858 12.9714V17.6428H77.6428V12.3428Z"
                                            fill="#0A66C2"
                                        />
                                    </svg>